<svg width="1314.258" height="96.683" viewBox="0 0 1314.258 96.683" xmlns="http://www.w3.org/2000/svg">
	<g id="svgGroup" stroke-linecap="round" fill-rule="evenodd" font-size="9pt" stroke="#000" stroke-width="0.25mm" fill="none" style="stroke:#000;stroke-width:0.25mm;fill:none">
		<path d="M 0 95.215 L 35.889 95.215 A 6.657 6.657 0 0 0 35.777 93.938 Q 35.376 91.896 33.545 91.553 A 7.452 7.452 0 0 0 32.08 91.406 L 24.316 91.406 L 24.316 57.275 L 31.934 50.098 L 66.65 95.215 L 87.012 95.215 A 6.657 6.657 0 0 0 86.9 93.938 Q 86.499 91.896 84.668 91.553 A 7.452 7.452 0 0 0 83.203 91.406 L 79.248 91.406 L 41.016 41.602 L 67.09 17.285 Q 72.51 12.158 75.293 11.426 A 12.506 12.506 0 0 1 77.532 11.143 A 14.249 14.249 0 0 1 78.076 11.133 A 6.657 6.657 0 0 0 79.353 11.021 Q 81.395 10.62 81.738 8.789 A 7.452 7.452 0 0 0 81.885 7.324 L 55.518 7.324 L 55.518 11.133 L 67.236 11.133 L 24.316 50.684 L 24.316 11.133 L 35.889 11.133 L 35.889 7.324 L 0 7.324 L 0 11.133 L 11.719 11.133 L 11.719 91.406 L 0 91.406 L 0 95.215 Z" id="0" vector-effect="non-scaling-stroke"/>
		<path d="M 124.951 31.494 A 33.561 33.561 0 0 0 112.244 33.836 A 31.133 31.133 0 0 0 101.514 41.162 A 30.426 30.426 0 0 0 92.905 61.779 A 39.89 39.89 0 0 0 92.871 63.428 Q 92.871 81.885 106.348 91.113 A 31.645 31.645 0 0 0 124.512 96.68 A 32.503 32.503 0 0 0 137.001 94.343 A 30.444 30.444 0 0 0 147.803 86.719 A 31.235 31.235 0 0 0 156.182 67.144 A 41.275 41.275 0 0 0 156.299 64.014 A 39.516 39.516 0 0 0 154.832 52.926 A 28.515 28.515 0 0 0 142.676 36.621 A 32.354 32.354 0 0 0 124.951 31.494 Z M 105.918 54.928 A 63.721 63.721 0 0 0 105.322 64.014 A 68.155 68.155 0 0 0 105.533 69.481 A 51.476 51.476 0 0 0 106.348 75.439 Q 108.907 87.25 116.425 91.125 A 18.359 18.359 0 0 0 124.951 93.018 A 20.156 20.156 0 0 0 130.371 92.285 A 15.393 15.393 0 0 0 136.183 88.966 Q 141.664 83.975 143.226 73.062 A 68.343 68.343 0 0 0 143.848 63.428 A 72.018 72.018 0 0 0 143.738 59.363 A 54.844 54.844 0 0 0 143.408 55.664 A 47.333 47.333 0 0 0 142.871 52.375 Q 140.561 40.882 133.155 37.06 A 18.605 18.605 0 0 0 124.512 35.156 Q 120.996 35.156 117.773 36.328 Q 108.046 40.219 105.918 54.928 Z" id="1" vector-effect="non-scaling-stroke"/>
		<path d="M 195.117 91.553 L 188.525 91.553 L 188.525 59.912 A 32.347 32.347 0 0 1 189.646 52.186 A 20.184 20.184 0 0 1 198.193 40.283 A 16.841 16.841 0 0 1 202.154 38.425 A 13.7 13.7 0 0 1 206.25 37.793 A 14.589 14.589 0 0 1 211.277 38.608 Q 216.193 40.402 218.408 46.143 A 18.96 18.96 0 0 1 219.539 50.682 A 24.448 24.448 0 0 1 219.727 53.76 L 219.727 82.764 Q 219.727 88.201 217.246 90.109 A 4.663 4.663 0 0 1 215.918 90.82 Q 214.163 91.405 210.631 91.523 A 56.918 56.918 0 0 1 208.74 91.553 L 208.74 95.215 L 241.699 95.215 A 7.049 7.049 0 0 0 241.601 93.986 Q 241.49 93.359 241.252 92.903 A 2.185 2.185 0 0 0 239.502 91.699 A 4.3 4.3 0 0 0 239.021 91.61 Q 238.763 91.576 238.465 91.562 A 9.267 9.267 0 0 0 238.037 91.553 L 230.713 91.553 L 230.713 55.225 A 33.251 33.251 0 0 0 229.822 47.263 A 20.418 20.418 0 0 0 220.605 34.277 A 19.455 19.455 0 0 0 210.498 31.494 A 21.805 21.805 0 0 0 194.008 38.562 A 27.984 27.984 0 0 0 192.627 40.137 A 29.618 29.618 0 0 0 188.379 47.607 L 187.793 32.959 L 166.553 32.959 L 166.553 36.621 L 177.539 36.621 L 177.539 82.764 Q 177.539 88.201 175.059 90.109 A 4.663 4.663 0 0 1 173.73 90.82 Q 171.975 91.405 168.444 91.523 A 56.918 56.918 0 0 1 166.553 91.553 L 166.553 95.215 L 198.779 95.215 A 7.049 7.049 0 0 0 198.682 93.986 Q 198.57 93.359 198.332 92.903 A 2.185 2.185 0 0 0 196.582 91.699 A 4.3 4.3 0 0 0 196.101 91.61 Q 195.843 91.576 195.545 91.562 A 9.267 9.267 0 0 0 195.117 91.553 Z" id="2" vector-effect="non-scaling-stroke"/>
		<path d="M 300 79.688 L 301.172 95.215 L 322.119 95.215 A 7.049 7.049 0 0 0 322.021 93.986 Q 321.91 93.359 321.672 92.903 A 2.185 2.185 0 0 0 319.922 91.699 A 4.3 4.3 0 0 0 319.441 91.61 Q 319.183 91.576 318.884 91.562 A 9.267 9.267 0 0 0 318.457 91.553 L 311.133 91.553 L 310.84 0 L 285.938 0 L 285.938 3.662 L 299.854 3.662 L 299.854 39.404 Q 292.676 31.494 280.518 31.494 A 28.4 28.4 0 0 0 268.933 33.773 Q 261.136 37.214 256.201 45.85 A 38.629 38.629 0 0 0 251.309 62.746 A 46.638 46.638 0 0 0 251.221 65.625 Q 251.221 79.152 257.557 87.235 A 25.67 25.67 0 0 0 262.646 92.139 A 24.128 24.128 0 0 0 276.855 96.68 A 23.629 23.629 0 0 0 289.708 92.924 Q 294.123 90.013 297.332 84.848 A 38.789 38.789 0 0 0 300 79.688 Z M 264.325 54.713 A 59.13 59.13 0 0 0 263.672 63.867 A 55.747 55.747 0 0 0 263.994 70 A 40.922 40.922 0 0 0 265.137 76.172 A 37.548 37.548 0 0 0 265.396 77.153 Q 267.697 85.404 272.838 88.674 A 14.536 14.536 0 0 0 280.811 90.82 A 15.28 15.28 0 0 0 286.162 89.883 A 16.455 16.455 0 0 0 291.504 86.572 Q 300.293 78.662 300.293 61.084 A 54.996 54.996 0 0 0 300.288 60.33 Q 300.18 52.455 297.803 46.582 Q 295.133 39.865 290.337 37.097 A 15.261 15.261 0 0 0 282.568 35.156 Q 278.32 35.156 274.805 37.061 A 17.667 17.667 0 0 0 273.793 37.665 Q 266.243 42.521 264.325 54.713 Z" id="3" vector-effect="non-scaling-stroke"/>
		<path d="M 344.531 36.621 L 355.518 36.621 L 355.518 32.959 L 326.514 32.959 L 326.514 36.621 L 333.105 36.621 L 351.416 85.693 A 47.953 47.953 0 0 0 352.769 89.01 Q 354.987 93.87 357.279 95.151 A 4 4 0 0 0 357.715 95.361 A 8.921 8.921 0 0 0 359.257 95.761 Q 360.006 95.889 360.866 95.929 A 17.254 17.254 0 0 0 361.67 95.947 L 364.6 95.947 L 377.344 57.568 L 387.158 85.693 A 50.729 50.729 0 0 0 388.383 88.96 Q 390.362 93.691 392.414 95.091 A 3.93 3.93 0 0 0 392.871 95.361 A 6.948 6.948 0 0 0 394.056 95.707 Q 394.644 95.827 395.336 95.887 A 17.279 17.279 0 0 0 396.826 95.947 L 399.17 95.947 L 416.895 41.895 A 19.902 19.902 0 0 1 417.563 40.097 Q 418.327 38.336 419.225 37.482 A 2.881 2.881 0 0 1 420.41 36.768 A 7.396 7.396 0 0 1 421.28 36.649 A 9.456 9.456 0 0 1 422.021 36.621 A 7.623 7.623 0 0 0 423.278 36.526 Q 425.339 36.18 425.684 34.57 A 7.396 7.396 0 0 0 425.802 33.7 A 9.456 9.456 0 0 0 425.83 32.959 L 404.15 32.959 L 404.15 36.621 L 414.404 36.621 L 398.145 87.158 L 381.006 36.621 L 391.26 36.621 L 391.26 32.959 L 368.701 32.959 L 375.293 51.563 L 363.135 87.598 L 344.531 36.621 Z" id="4" vector-effect="non-scaling-stroke"/>
		<path d="M 487.793 81.152 L 484.131 79.834 Q 479.004 90.967 467.578 92.432 A 29.51 29.51 0 0 1 465.633 92.564 A 24.999 24.999 0 0 1 464.795 92.578 A 19.052 19.052 0 0 1 455.931 90.607 Q 448.58 86.809 445.792 75.698 A 44.431 44.431 0 0 1 445.459 74.268 A 51.549 51.549 0 0 1 444.429 67.818 A 65.385 65.385 0 0 1 444.141 62.988 L 461.719 63.281 Q 479.59 63.574 484.717 59.912 Q 488.672 56.982 488.672 51.563 A 16.55 16.55 0 0 0 482.379 38.397 A 26.58 26.58 0 0 0 478.564 35.742 A 30.493 30.493 0 0 0 466.286 31.727 A 38.257 38.257 0 0 0 462.012 31.494 A 34.161 34.161 0 0 0 451.173 33.115 Q 441.514 36.332 436.215 45.937 A 35.55 35.55 0 0 0 435.791 46.729 A 36.679 36.679 0 0 0 431.915 60.043 A 45.152 45.152 0 0 0 431.689 64.6 A 39.917 39.917 0 0 0 433.093 75.51 A 27.993 27.993 0 0 0 444.727 91.553 A 31.124 31.124 0 0 0 461.061 96.654 A 37.833 37.833 0 0 0 462.451 96.68 Q 478.271 96.68 485.742 85.254 A 40.362 40.362 0 0 0 487.682 81.409 A 37.155 37.155 0 0 0 487.793 81.152 Z M 459.668 59.326 L 444.141 58.887 A 44.087 44.087 0 0 1 445.102 51.196 Q 447.437 40.759 455.127 36.914 A 15.296 15.296 0 0 1 462.305 35.156 A 18.596 18.596 0 0 1 467.528 35.84 Q 473.506 37.587 475.928 43.799 A 15.195 15.195 0 0 1 477.094 49.354 A 17.476 17.476 0 0 1 477.1 49.805 Q 477.1 57.129 470.068 58.74 A 25.323 25.323 0 0 1 467.952 59.062 Q 464.651 59.435 459.668 59.326 Z" id="5" vector-effect="non-scaling-stroke"/>
		<path d="M 531.006 91.553 L 520.459 91.553 L 520.459 62.402 A 35.103 35.103 0 0 1 521.686 52.881 A 26.305 26.305 0 0 1 528.662 41.016 A 22.114 22.114 0 0 1 530.209 39.661 Q 532.434 37.903 534.082 37.793 Q 536.484 37.793 538.478 41.201 A 15.616 15.616 0 0 1 538.623 41.455 A 23.404 23.404 0 0 0 539.706 43.185 Q 540.839 44.818 541.9 45.578 A 3.665 3.665 0 0 0 543.018 46.143 A 5.536 5.536 0 0 0 544.748 46.435 A 5.268 5.268 0 0 0 544.775 46.436 A 6.819 6.819 0 0 0 546.992 46.1 Q 549.5 45.241 550.342 42.188 A 5.536 5.536 0 0 0 550.635 40.457 A 5.268 5.268 0 0 0 550.635 40.43 A 9.594 9.594 0 0 0 550.131 37.208 Q 549.127 34.38 546.122 33.074 A 11.947 11.947 0 0 0 543.896 32.373 A 15.254 15.254 0 0 0 542.123 32.121 A 12.657 12.657 0 0 0 541.113 32.08 A 19.672 19.672 0 0 0 528.543 36.64 A 28.046 28.046 0 0 0 525.439 39.551 A 28.24 28.24 0 0 0 520.312 47.461 L 519.727 32.959 L 498.486 32.959 L 498.486 36.621 L 509.473 36.621 L 509.473 82.764 Q 509.473 88.201 506.992 90.109 A 4.663 4.663 0 0 1 505.664 90.82 Q 503.909 91.405 500.377 91.523 A 56.918 56.918 0 0 1 498.486 91.553 L 498.486 95.215 L 534.668 95.215 A 7.049 7.049 0 0 0 534.57 93.986 Q 534.459 93.359 534.22 92.903 A 2.185 2.185 0 0 0 532.471 91.699 A 4.3 4.3 0 0 0 531.99 91.61 Q 531.732 91.576 531.433 91.562 A 9.267 9.267 0 0 0 531.006 91.553 Z" id="6" vector-effect="non-scaling-stroke"/>
		<path d="M 621.24 81.445 L 617.432 81.299 A 37.611 37.611 0 0 1 616.918 84.938 Q 615.527 92.02 611.719 92.139 A 3.426 3.426 0 0 1 608.857 90.147 Q 608.031 88.602 607.826 85.867 A 24.547 24.547 0 0 1 607.764 84.521 L 607.764 53.613 A 30.359 30.359 0 0 0 606.623 44.912 Q 603.731 35.253 593.513 32.512 A 32.964 32.964 0 0 0 586.816 31.494 L 584.18 31.494 A 54.916 54.916 0 0 0 576.681 31.967 Q 568.293 33.127 563.965 37.14 A 13.736 13.736 0 0 0 562.207 39.111 A 10.678 10.678 0 0 0 561.069 41.135 A 7.598 7.598 0 0 0 560.449 44.092 Q 560.449 48.093 563.747 49.137 A 7.196 7.196 0 0 0 564.697 49.365 A 7.452 7.452 0 0 0 566.162 49.512 A 4.527 4.527 0 0 0 569.928 47.552 Q 570.484 46.814 570.925 45.799 A 12.194 12.194 0 0 0 571.143 45.264 A 165.267 165.267 0 0 1 571.865 43.386 Q 573.306 39.714 573.906 38.847 A 2.298 2.298 0 0 1 573.926 38.818 A 8.864 8.864 0 0 1 578.904 35.589 Q 580.425 35.19 582.256 35.159 A 18.358 18.358 0 0 1 582.568 35.156 A 19.634 19.634 0 0 1 588.456 36.364 Q 594.634 38.771 596.233 45.758 A 23.367 23.367 0 0 1 596.777 50.244 L 596.777 59.473 A 125.957 125.957 0 0 0 584.021 60.064 Q 561.343 62.385 557.373 73.828 A 19.145 19.145 0 0 0 556.542 78.348 A 22.558 22.558 0 0 0 556.494 79.834 A 19.358 19.358 0 0 0 557.405 85.965 Q 559.281 91.606 565.021 94.479 A 20.758 20.758 0 0 0 566.309 95.068 A 21.917 21.917 0 0 0 574.658 96.68 A 25.718 25.718 0 0 0 585.069 94.613 A 24.713 24.713 0 0 0 592.676 89.355 Q 595.313 86.572 596.631 83.496 Q 598.326 96.071 607.926 96.653 A 15.493 15.493 0 0 0 608.643 96.68 Q 619.089 96.68 620.866 84.994 A 30.008 30.008 0 0 0 621.094 83.057 A 11.422 11.422 0 0 0 621.204 82.214 A 8.507 8.507 0 0 0 621.24 81.445 Z M 596.777 63.428 L 596.777 75.146 A 23.106 23.106 0 0 1 594.244 81.882 A 18.469 18.469 0 0 1 586.084 89.355 A 18.095 18.095 0 0 1 582.391 90.53 A 14.87 14.87 0 0 1 579.492 90.82 A 13.313 13.313 0 0 1 575.12 90.152 Q 571.137 88.772 569.35 84.542 A 16.042 16.042 0 0 1 568.506 81.885 A 19.395 19.395 0 0 1 568.151 79.439 A 25.141 25.141 0 0 1 568.066 77.344 Q 568.066 67.713 578.929 64.994 A 27.451 27.451 0 0 1 579.346 64.893 A 46.321 46.321 0 0 1 583.389 64.213 Q 588.744 63.531 596.777 63.428 Z" id="7" vector-effect="non-scaling-stroke"/>
		<path d="M 654.932 91.553 L 648.34 91.553 L 648.34 59.912 A 32.347 32.347 0 0 1 649.46 52.186 A 20.184 20.184 0 0 1 658.008 40.283 A 16.841 16.841 0 0 1 661.968 38.425 A 13.7 13.7 0 0 1 666.064 37.793 A 14.589 14.589 0 0 1 671.091 38.608 Q 676.007 40.402 678.223 46.143 A 18.96 18.96 0 0 1 679.354 50.682 A 24.448 24.448 0 0 1 679.541 53.76 L 679.541 82.764 Q 679.541 88.201 677.061 90.109 A 4.663 4.663 0 0 1 675.732 90.82 Q 673.977 91.405 670.446 91.523 A 56.918 56.918 0 0 1 668.555 91.553 L 668.555 95.215 L 701.514 95.215 A 7.049 7.049 0 0 0 701.416 93.986 Q 701.304 93.359 701.066 92.903 A 2.185 2.185 0 0 0 699.316 91.699 A 4.3 4.3 0 0 0 698.836 91.61 Q 698.578 91.576 698.279 91.562 A 9.267 9.267 0 0 0 697.852 91.553 L 690.527 91.553 L 690.527 55.225 A 33.251 33.251 0 0 0 689.637 47.263 A 20.418 20.418 0 0 0 680.42 34.277 A 19.455 19.455 0 0 0 670.312 31.494 A 21.805 21.805 0 0 0 653.822 38.562 A 27.984 27.984 0 0 0 652.441 40.137 A 29.618 29.618 0 0 0 648.193 47.607 L 647.607 32.959 L 626.367 32.959 L 626.367 36.621 L 637.354 36.621 L 637.354 82.764 Q 637.354 88.201 634.873 90.109 A 4.663 4.663 0 0 1 633.545 90.82 Q 631.79 91.405 628.258 91.523 A 56.918 56.918 0 0 1 626.367 91.553 L 626.367 95.215 L 658.594 95.215 A 7.049 7.049 0 0 0 658.496 93.986 Q 658.385 93.359 658.146 92.903 A 2.185 2.185 0 0 0 656.396 91.699 A 4.3 4.3 0 0 0 655.916 91.61 Q 655.658 91.576 655.359 91.562 A 9.267 9.267 0 0 0 654.932 91.553 Z" id="8" vector-effect="non-scaling-stroke"/>
		<path d="M 739.6 91.553 L 732.275 91.553 L 732.275 32.959 L 709.57 32.959 L 709.57 36.621 L 721.289 36.621 L 721.289 82.764 Q 721.289 86.197 720.11 88.261 A 5.774 5.774 0 0 1 716.748 90.967 A 12.235 12.235 0 0 1 715.384 91.237 Q 713.228 91.553 709.57 91.553 L 709.57 95.215 L 743.262 95.215 A 7.049 7.049 0 0 0 743.164 93.986 Q 743.053 93.359 742.814 92.903 A 2.185 2.185 0 0 0 741.064 91.699 A 7.452 7.452 0 0 0 739.6 91.553 Z M 734.033 11.572 Q 734.033 6.445 729.492 4.248 A 10.009 10.009 0 0 0 727.771 3.699 A 7.745 7.745 0 0 0 726.123 3.516 A 8.665 8.665 0 0 0 722.944 4.07 Q 720.727 4.937 719.358 7.163 A 10.455 10.455 0 0 0 718.799 8.203 A 8.052 8.052 0 0 0 718.066 11.572 Q 718.066 16.526 722.105 18.666 A 10.254 10.254 0 0 0 722.9 19.043 A 9.505 9.505 0 0 0 725.62 19.615 A 8.875 8.875 0 0 0 726.123 19.629 A 8.618 8.618 0 0 0 729.156 19.124 Q 731.923 18.091 733.301 14.941 A 8.052 8.052 0 0 0 734.033 11.572 Z" id="9" vector-effect="non-scaling-stroke"/>
		<path d="M 782.08 95.215 L 817.969 95.215 A 6.657 6.657 0 0 0 817.857 93.938 Q 817.456 91.896 815.625 91.553 A 7.452 7.452 0 0 0 814.16 91.406 L 806.396 91.406 L 806.396 57.275 L 814.014 50.098 L 848.73 95.215 L 869.092 95.215 A 6.657 6.657 0 0 0 868.98 93.938 Q 868.579 91.896 866.748 91.553 A 7.452 7.452 0 0 0 865.283 91.406 L 861.328 91.406 L 823.096 41.602 L 849.17 17.285 Q 854.59 12.158 857.373 11.426 A 12.506 12.506 0 0 1 859.612 11.143 A 14.249 14.249 0 0 1 860.156 11.133 A 6.657 6.657 0 0 0 861.433 11.021 Q 863.475 10.62 863.818 8.789 A 7.452 7.452 0 0 0 863.965 7.324 L 837.598 7.324 L 837.598 11.133 L 849.316 11.133 L 806.396 50.684 L 806.396 11.133 L 817.969 11.133 L 817.969 7.324 L 782.08 7.324 L 782.08 11.133 L 793.799 11.133 L 793.799 91.406 L 782.08 91.406 L 782.08 95.215 Z" id="11" vector-effect="non-scaling-stroke"/>
		<path d="M 938.965 81.445 L 935.156 81.299 A 37.611 37.611 0 0 1 934.643 84.938 Q 933.252 92.02 929.443 92.139 A 3.426 3.426 0 0 1 926.581 90.147 Q 925.756 88.602 925.55 85.867 A 24.547 24.547 0 0 1 925.488 84.521 L 925.488 53.613 A 30.359 30.359 0 0 0 924.347 44.912 Q 921.456 35.253 911.237 32.512 A 32.964 32.964 0 0 0 904.541 31.494 L 901.904 31.494 A 54.916 54.916 0 0 0 894.405 31.967 Q 886.018 33.127 881.689 37.14 A 13.736 13.736 0 0 0 879.932 39.111 A 10.678 10.678 0 0 0 878.794 41.135 A 7.598 7.598 0 0 0 878.174 44.092 Q 878.174 48.093 881.471 49.137 A 7.196 7.196 0 0 0 882.422 49.365 A 7.452 7.452 0 0 0 883.887 49.512 A 4.527 4.527 0 0 0 887.652 47.552 Q 888.209 46.814 888.65 45.799 A 12.194 12.194 0 0 0 888.867 45.264 A 165.267 165.267 0 0 1 889.59 43.386 Q 891.031 39.714 891.63 38.847 A 2.298 2.298 0 0 1 891.65 38.818 A 8.864 8.864 0 0 1 896.628 35.589 Q 898.15 35.19 899.98 35.159 A 18.358 18.358 0 0 1 900.293 35.156 A 19.634 19.634 0 0 1 906.181 36.364 Q 912.359 38.771 913.958 45.758 A 23.367 23.367 0 0 1 914.502 50.244 L 914.502 59.473 A 125.957 125.957 0 0 0 901.746 60.064 Q 879.068 62.385 875.098 73.828 A 19.145 19.145 0 0 0 874.267 78.348 A 22.558 22.558 0 0 0 874.219 79.834 A 19.358 19.358 0 0 0 875.13 85.965 Q 877.006 91.606 882.746 94.479 A 20.758 20.758 0 0 0 884.033 95.068 A 21.917 21.917 0 0 0 892.383 96.68 A 25.718 25.718 0 0 0 902.794 94.613 A 24.713 24.713 0 0 0 910.4 89.355 Q 913.037 86.572 914.355 83.496 Q 916.051 96.071 925.651 96.653 A 15.493 15.493 0 0 0 926.367 96.68 Q 936.814 96.68 938.59 84.994 A 30.008 30.008 0 0 0 938.818 83.057 A 11.422 11.422 0 0 0 938.928 82.214 A 8.507 8.507 0 0 0 938.965 81.445 Z M 914.502 63.428 L 914.502 75.146 A 23.106 23.106 0 0 1 911.968 81.882 A 18.469 18.469 0 0 1 903.809 89.355 A 18.095 18.095 0 0 1 900.116 90.53 A 14.87 14.87 0 0 1 897.217 90.82 A 13.313 13.313 0 0 1 892.845 90.152 Q 888.861 88.772 887.074 84.542 A 16.042 16.042 0 0 1 886.23 81.885 A 19.395 19.395 0 0 1 885.875 79.439 A 25.141 25.141 0 0 1 885.791 77.344 Q 885.791 67.713 896.653 64.994 A 27.451 27.451 0 0 1 897.07 64.893 A 46.321 46.321 0 0 1 901.114 64.213 Q 906.468 63.531 914.502 63.428 Z" id="12" vector-effect="non-scaling-stroke"/>
		<path d="M 972.656 91.553 L 966.064 91.553 L 966.064 59.912 A 31.967 31.967 0 0 1 967.22 52.162 A 21.025 21.025 0 0 1 975 40.723 A 16.88 16.88 0 0 1 978.09 38.881 Q 980.5 37.793 982.91 37.793 A 10.067 10.067 0 0 1 987.83 38.962 Q 989.995 40.149 991.48 42.543 A 16.44 16.44 0 0 1 993.018 45.85 A 22.471 22.471 0 0 1 993.995 50.326 A 29.248 29.248 0 0 1 994.189 53.76 L 994.189 82.764 A 21.565 21.565 0 0 1 994.041 85.409 Q 993.497 89.785 990.967 90.82 A 8.757 8.757 0 0 1 989.671 91.158 Q 988.275 91.423 986.166 91.51 A 54.287 54.287 0 0 1 983.936 91.553 L 983.936 95.215 L 1015.43 95.215 A 7.049 7.049 0 0 0 1015.332 93.986 Q 1015.22 93.359 1014.982 92.903 A 2.185 2.185 0 0 0 1013.232 91.699 A 4.3 4.3 0 0 0 1012.752 91.61 Q 1012.494 91.576 1012.195 91.562 A 9.267 9.267 0 0 0 1011.768 91.553 L 1005.176 91.553 L 1005.176 55.225 L 1005.176 54.053 A 27.492 27.492 0 0 1 1007.462 47.463 A 18.787 18.787 0 0 1 1015.576 39.111 A 16.337 16.337 0 0 1 1018.304 38.085 A 11.902 11.902 0 0 1 1021.436 37.646 Q 1028.906 37.646 1031.982 45.41 A 20.11 20.11 0 0 1 1033.206 50.12 A 26.37 26.37 0 0 1 1033.447 53.76 L 1033.447 82.764 A 21.565 21.565 0 0 1 1033.299 85.409 Q 1032.755 89.785 1030.225 90.82 A 8.757 8.757 0 0 1 1028.928 91.158 Q 1027.533 91.423 1025.424 91.51 A 54.287 54.287 0 0 1 1023.193 91.553 L 1023.193 95.215 L 1055.566 95.215 A 7.049 7.049 0 0 0 1055.469 93.986 Q 1055.357 93.359 1055.119 92.903 A 2.185 2.185 0 0 0 1053.369 91.699 A 4.3 4.3 0 0 0 1052.888 91.61 Q 1052.63 91.576 1052.332 91.562 A 9.267 9.267 0 0 0 1051.904 91.553 L 1044.434 91.553 L 1044.434 55.225 Q 1044.434 45.241 1040.137 39.234 A 18.699 18.699 0 0 0 1034.619 34.131 A 18.177 18.177 0 0 0 1025.098 31.494 A 19.619 19.619 0 0 0 1009.702 38.593 A 28.908 28.908 0 0 0 1007.227 41.895 A 30.288 30.288 0 0 0 1004.297 47.461 A 27.695 27.695 0 0 0 1002.105 41.171 A 16.968 16.968 0 0 0 992.725 32.52 Q 990.088 31.494 987.305 31.494 A 20.686 20.686 0 0 0 971.537 38.458 A 28.314 28.314 0 0 0 969.873 40.43 Q 967.383 43.652 965.918 47.607 L 965.332 32.959 L 944.092 32.959 L 944.092 36.621 L 955.078 36.621 L 955.078 82.764 Q 955.078 88.201 952.598 90.109 A 4.663 4.663 0 0 1 951.27 90.82 Q 949.514 91.405 945.983 91.523 A 56.918 56.918 0 0 1 944.092 91.553 L 944.092 95.215 L 976.318 95.215 Q 976.318 92.139 974.121 91.699 A 7.452 7.452 0 0 0 972.656 91.553 Z" id="13" vector-effect="non-scaling-stroke"/>
		<path d="M 1109.473 30.615 L 1109.473 48.926 L 1105.664 48.926 Q 1105.371 35.449 1090.723 35.303 A 28.575 28.575 0 0 0 1086.049 35.654 Q 1079.121 36.807 1077.1 41.748 Q 1076.367 43.506 1076.367 45.41 Q 1076.367 51.709 1085.449 56.104 A 38.708 38.708 0 0 0 1086.621 56.662 Q 1088.599 57.568 1091.895 58.887 A 101.414 101.414 0 0 1 1097.333 61.276 Q 1102.467 63.729 1105.469 66.064 A 17.331 17.331 0 0 1 1107.715 68.115 A 16.022 16.022 0 0 1 1111.963 79.248 A 16.864 16.864 0 0 1 1110.607 86.183 Q 1108.741 90.367 1104.307 92.94 A 24.361 24.361 0 0 1 1099.365 95.068 A 31.582 31.582 0 0 1 1091.962 96.552 A 38.043 38.043 0 0 1 1088.818 96.68 A 37.347 37.347 0 0 1 1078.967 95.288 A 30.641 30.641 0 0 1 1070.508 91.406 A 11.675 11.675 0 0 1 1070.429 92.821 Q 1070.242 94.343 1069.612 95.115 A 2.064 2.064 0 0 1 1068.604 95.801 Q 1067.725 95.947 1066.553 95.947 L 1066.553 73.682 L 1070.654 73.682 A 32.472 32.472 0 0 0 1071.482 80.819 Q 1073.906 90.796 1083.382 92.413 A 23.124 23.124 0 0 0 1087.061 92.725 Q 1092.854 92.725 1096.482 90.703 A 10.784 10.784 0 0 0 1100.684 86.572 Q 1102.002 84.375 1102.002 81.738 Q 1102.002 75.586 1093.066 71.191 Q 1091.233 70.204 1087.092 68.403 A 242.11 242.11 0 0 0 1086.768 68.262 A 105.597 105.597 0 0 1 1081.265 65.808 Q 1076.074 63.298 1073.055 60.946 A 17.483 17.483 0 0 1 1070.801 58.887 A 16.555 16.555 0 0 1 1066.553 47.607 A 13.903 13.903 0 0 1 1068.461 40.267 Q 1070.15 37.476 1073.331 35.491 A 23.649 23.649 0 0 1 1077.686 33.398 A 30.793 30.793 0 0 1 1086.415 31.573 A 36.285 36.285 0 0 1 1088.818 31.494 A 38.317 38.317 0 0 1 1097.039 32.336 A 29.065 29.065 0 0 1 1105.518 35.596 A 13.41 13.41 0 0 1 1105.602 34.021 Q 1105.934 31.229 1107.568 30.762 A 10.718 10.718 0 0 1 1108.724 30.636 A 13.248 13.248 0 0 1 1109.473 30.615 Z" id="14" vector-effect="non-scaling-stroke"/>
		<path d="M 1179.785 81.152 L 1176.123 79.834 Q 1170.996 90.967 1159.57 92.432 A 29.51 29.51 0 0 1 1157.625 92.564 A 24.999 24.999 0 0 1 1156.787 92.578 A 19.052 19.052 0 0 1 1147.924 90.607 Q 1140.572 86.809 1137.785 75.698 A 44.431 44.431 0 0 1 1137.451 74.268 A 51.549 51.549 0 0 1 1136.421 67.818 A 65.385 65.385 0 0 1 1136.133 62.988 L 1153.711 63.281 Q 1171.582 63.574 1176.709 59.912 Q 1180.664 56.982 1180.664 51.563 A 16.55 16.55 0 0 0 1174.371 38.397 A 26.58 26.58 0 0 0 1170.557 35.742 A 30.493 30.493 0 0 0 1158.278 31.727 A 38.257 38.257 0 0 0 1154.004 31.494 A 34.161 34.161 0 0 0 1143.166 33.115 Q 1133.506 36.332 1128.207 45.937 A 35.55 35.55 0 0 0 1127.783 46.729 A 36.679 36.679 0 0 0 1123.907 60.043 A 45.152 45.152 0 0 0 1123.682 64.6 A 39.917 39.917 0 0 0 1125.085 75.51 A 27.993 27.993 0 0 0 1136.719 91.553 A 31.124 31.124 0 0 0 1153.053 96.654 A 37.833 37.833 0 0 0 1154.443 96.68 Q 1170.264 96.68 1177.734 85.254 A 40.362 40.362 0 0 0 1179.674 81.409 A 37.155 37.155 0 0 0 1179.785 81.152 Z M 1151.66 59.326 L 1136.133 58.887 A 44.087 44.087 0 0 1 1137.094 51.196 Q 1139.429 40.759 1147.119 36.914 A 15.296 15.296 0 0 1 1154.297 35.156 A 18.596 18.596 0 0 1 1159.52 35.84 Q 1165.498 37.587 1167.92 43.799 A 15.195 15.195 0 0 1 1169.086 49.354 A 17.476 17.476 0 0 1 1169.092 49.805 Q 1169.092 57.129 1162.061 58.74 A 25.323 25.323 0 0 1 1159.945 59.062 Q 1156.644 59.435 1151.66 59.326 Z" id="15" vector-effect="non-scaling-stroke"/>
		<path d="M 1236.035 30.615 L 1236.035 48.926 L 1232.227 48.926 Q 1231.934 35.449 1217.285 35.303 A 28.575 28.575 0 0 0 1212.612 35.654 Q 1205.683 36.807 1203.662 41.748 Q 1202.93 43.506 1202.93 45.41 Q 1202.93 51.709 1212.012 56.104 A 38.708 38.708 0 0 0 1213.184 56.662 Q 1215.161 57.568 1218.457 58.887 A 101.414 101.414 0 0 1 1223.895 61.276 Q 1229.03 63.729 1232.031 66.064 A 17.331 17.331 0 0 1 1234.277 68.115 A 16.022 16.022 0 0 1 1238.525 79.248 A 16.864 16.864 0 0 1 1237.169 86.183 Q 1235.303 90.367 1230.87 92.94 A 24.361 24.361 0 0 1 1225.928 95.068 A 31.582 31.582 0 0 1 1218.525 96.552 A 38.043 38.043 0 0 1 1215.381 96.68 A 37.347 37.347 0 0 1 1205.53 95.288 A 30.641 30.641 0 0 1 1197.07 91.406 A 11.675 11.675 0 0 1 1196.992 92.821 Q 1196.805 94.343 1196.174 95.115 A 2.064 2.064 0 0 1 1195.166 95.801 Q 1194.287 95.947 1193.115 95.947 L 1193.115 73.682 L 1197.217 73.682 A 32.472 32.472 0 0 0 1198.044 80.819 Q 1200.468 90.796 1209.945 92.413 A 23.124 23.124 0 0 0 1213.623 92.725 Q 1219.416 92.725 1223.044 90.703 A 10.784 10.784 0 0 0 1227.246 86.572 Q 1228.564 84.375 1228.564 81.738 Q 1228.564 75.586 1219.629 71.191 Q 1217.796 70.204 1213.655 68.403 A 242.11 242.11 0 0 0 1213.33 68.262 A 105.597 105.597 0 0 1 1207.828 65.808 Q 1202.636 63.298 1199.617 60.946 A 17.483 17.483 0 0 1 1197.363 58.887 A 16.555 16.555 0 0 1 1193.115 47.607 A 13.903 13.903 0 0 1 1195.024 40.267 Q 1196.712 37.476 1199.893 35.491 A 23.649 23.649 0 0 1 1204.248 33.398 A 30.793 30.793 0 0 1 1212.977 31.573 A 36.285 36.285 0 0 1 1215.381 31.494 A 38.317 38.317 0 0 1 1223.601 32.336 A 29.065 29.065 0 0 1 1232.08 35.596 A 13.41 13.41 0 0 1 1232.165 34.021 Q 1232.497 31.229 1234.131 30.762 A 10.718 10.718 0 0 1 1235.287 30.636 A 13.248 13.248 0 0 1 1236.035 30.615 Z" id="16" vector-effect="non-scaling-stroke"/>
		<path d="M 1314.258 81.445 L 1310.449 81.299 A 37.611 37.611 0 0 1 1309.936 84.938 Q 1308.545 92.02 1304.736 92.139 A 3.426 3.426 0 0 1 1301.874 90.147 Q 1301.049 88.602 1300.843 85.867 A 24.547 24.547 0 0 1 1300.781 84.521 L 1300.781 53.613 A 30.359 30.359 0 0 0 1299.64 44.912 Q 1296.749 35.253 1286.53 32.512 A 32.964 32.964 0 0 0 1279.834 31.494 L 1277.197 31.494 A 54.916 54.916 0 0 0 1269.698 31.967 Q 1261.311 33.127 1256.982 37.14 A 13.736 13.736 0 0 0 1255.225 39.111 A 10.678 10.678 0 0 0 1254.086 41.135 A 7.598 7.598 0 0 0 1253.467 44.092 Q 1253.467 48.093 1256.764 49.137 A 7.196 7.196 0 0 0 1257.715 49.365 A 7.452 7.452 0 0 0 1259.18 49.512 A 4.527 4.527 0 0 0 1262.945 47.552 Q 1263.501 46.814 1263.943 45.799 A 12.194 12.194 0 0 0 1264.16 45.264 A 165.267 165.267 0 0 1 1264.883 43.386 Q 1266.324 39.714 1266.923 38.847 A 2.298 2.298 0 0 1 1266.943 38.818 A 8.864 8.864 0 0 1 1271.921 35.589 Q 1273.443 35.19 1275.273 35.159 A 18.358 18.358 0 0 1 1275.586 35.156 A 19.634 19.634 0 0 1 1281.474 36.364 Q 1287.652 38.771 1289.251 45.758 A 23.367 23.367 0 0 1 1289.795 50.244 L 1289.795 59.473 A 125.957 125.957 0 0 0 1277.039 60.064 Q 1254.361 62.385 1250.391 73.828 A 19.145 19.145 0 0 0 1249.56 78.348 A 22.558 22.558 0 0 0 1249.512 79.834 A 19.358 19.358 0 0 0 1250.423 85.965 Q 1252.299 91.606 1258.039 94.479 A 20.758 20.758 0 0 0 1259.326 95.068 A 21.917 21.917 0 0 0 1267.676 96.68 A 25.718 25.718 0 0 0 1278.087 94.613 A 24.713 24.713 0 0 0 1285.693 89.355 Q 1288.33 86.572 1289.648 83.496 Q 1291.344 96.071 1300.944 96.653 A 15.493 15.493 0 0 0 1301.66 96.68 Q 1312.107 96.68 1313.883 84.994 A 30.008 30.008 0 0 0 1314.111 83.057 A 11.422 11.422 0 0 0 1314.221 82.214 A 8.507 8.507 0 0 0 1314.258 81.445 Z M 1289.795 63.428 L 1289.795 75.146 A 23.106 23.106 0 0 1 1287.261 81.882 A 18.469 18.469 0 0 1 1279.102 89.355 A 18.095 18.095 0 0 1 1275.409 90.53 A 14.87 14.87 0 0 1 1272.51 90.82 A 13.313 13.313 0 0 1 1268.138 90.152 Q 1264.154 88.772 1262.367 84.542 A 16.042 16.042 0 0 1 1261.523 81.885 A 19.395 19.395 0 0 1 1261.168 79.439 A 25.141 25.141 0 0 1 1261.084 77.344 Q 1261.084 67.713 1271.946 64.994 A 27.451 27.451 0 0 1 1272.363 64.893 A 46.321 46.321 0 0 1 1276.407 64.213 Q 1281.761 63.531 1289.795 63.428 Z" id="17" vector-effect="non-scaling-stroke"/>
	</g>
</svg>